<svg width="64" height="64" viewBox="0 0 64 64" fill="none" xmlns="http://www.w3.org/2000/svg">
<rect width="64" height="64" fill="#0A1628"/>
<path d="M47.2443 10.5129C46.0872 9.58683 44.8628 8.74803 43.5814 8.00348C42.9334 7.62712 42.2649 7.28732 41.579 6.98565C40.8801 6.67607 40.1565 6.42562 39.4158 6.23691C39.0308 6.14209 38.6403 6.07175 38.2465 6.02632C38.1471 6.02632 38.0477 6.00877 37.9541 6H37.8021H37.6501C37.4455 6 37.2379 6 37.0275 6.01755C36.8143 6.03605 36.6025 6.0673 36.3931 6.11114C36.176 6.15891 35.9629 6.22345 35.7558 6.30418C35.322 6.47297 34.9249 6.72426 34.5865 7.04415C34.2418 7.364 33.9619 7.74731 33.7621 8.17311C33.6671 8.37998 33.5889 8.59418 33.5283 8.81364C33.4707 9.02608 33.4268 9.24198 33.3967 9.46002C33.3967 9.53899 33.3763 9.61503 33.3675 9.694C33.2096 9.62088 33.0489 9.54776 32.8881 9.48049C31.9138 9.05573 30.9056 8.71331 29.8742 8.45682C29.3471 8.32451 28.812 8.22681 28.2722 8.16434C28.1348 8.14679 27.9974 8.14094 27.86 8.12924H27.6525H27.2345H27.024C26.9509 8.12924 26.8807 8.12924 26.8106 8.12924C26.7404 8.12924 26.6703 8.12924 26.5972 8.12924C26.3102 8.1535 26.025 8.19649 25.7436 8.25793C25.4531 8.3237 25.1678 8.4107 24.89 8.51824C24.316 8.74432 23.791 9.07897 23.3436 9.50389C22.8976 9.93843 22.5393 10.4548 22.2883 11.0248C22.1684 11.3013 22.0706 11.5868 21.9959 11.8788C21.9323 12.1155 21.8825 12.3558 21.8469 12.5983C21.5 12.5028 21.1492 12.415 20.7945 12.3351C20.1594 12.1957 19.5159 12.098 18.868 12.0426C18.5406 12.0192 18.2103 12.0017 17.877 12.0075C17.7104 12.0075 17.5438 12.0075 17.3772 12.0075L17.1228 12.028H16.9971H16.8714C16.5316 12.0657 16.1946 12.1262 15.8629 12.2093C15.5229 12.2902 15.1904 12.3998 14.869 12.5369C13.5218 13.0879 12.4369 14.1346 11.8376 15.4617C11.6882 15.7837 11.565 16.1172 11.4692 16.459C11.3676 16.8107 11.2923 17.1695 11.2441 17.5324L11.2237 17.6611L11.209 17.7898C11.209 17.8746 11.1857 17.9594 11.1798 18.0443C11.1652 18.2139 11.1506 18.3835 11.1447 18.5532C11.1272 18.8924 11.1447 19.2288 11.1447 19.5622C11.1741 20.2246 11.2483 20.8842 11.3669 21.5365C11.44 21.9371 11.5248 22.3349 11.6242 22.7268C11.4868 22.7502 11.3494 22.7736 11.212 22.8029C10.9215 22.8686 10.6362 22.9556 10.3584 23.0632C9.78439 23.2893 9.25934 23.6239 8.81196 24.0488C8.3666 24.4839 8.00842 25.0002 7.75665 25.5697C7.63675 25.8462 7.539 26.1318 7.46432 26.4238C7.38784 26.7122 7.33023 27.0053 7.29185 27.3012C7.29185 27.3743 7.29185 27.4445 7.26847 27.5176C7.24508 27.5908 7.25385 27.6609 7.248 27.7341L7.23339 27.9476V28.1611V28.5881C7.23339 28.7285 7.23339 28.8806 7.25093 29.0093C7.28599 29.5632 7.35728 30.1142 7.46432 30.6588C7.57151 31.197 7.70306 31.7254 7.85897 32.2441C8.01488 32.7627 8.18345 33.2707 8.3647 33.7679C8.4407 33.9668 8.52255 34.1627 8.60148 34.3529C8.41184 34.3709 8.22344 34.4002 8.03729 34.4406C7.8202 34.4884 7.60713 34.5529 7.40001 34.6336C6.96601 34.8022 6.56887 35.0535 6.2307 35.3736C5.88957 35.7001 5.61463 36.0894 5.42095 36.5201C5.32763 36.7274 5.25042 36.9415 5.19001 37.1606C5.13151 37.373 5.0866 37.5889 5.05554 37.807C5.02556 38.0184 5.00702 38.2312 5 38.4446V38.7576C5 38.8629 5 38.9682 5 39.0705C5.02072 39.475 5.06857 39.8775 5.14324 40.2755C5.21632 40.6704 5.30987 41.0535 5.41803 41.4308C5.52619 41.8081 5.65189 42.1766 5.78636 42.5393C6.05974 43.2572 6.37302 43.9593 6.72473 44.6422C7.42768 45.9851 8.24328 47.2659 9.16275 48.4708C10.989 50.8673 13.1285 53.0079 15.5238 54.8351C16.7281 55.7551 18.0082 56.5711 19.3504 57.2744C20.0318 57.6287 20.7336 57.9422 21.4522 58.2132C21.8147 58.3478 22.183 58.4735 22.5601 58.5818C22.9372 58.69 23.3202 58.7836 23.7295 58.8567C24.1273 58.9314 24.5296 58.9793 24.9338 59C25.0362 59 25.1414 59 25.2466 59H25.5594C25.7727 58.993 25.9854 58.9744 26.1967 58.9444C26.4148 58.914 26.6306 58.869 26.8427 58.8099C27.0618 58.7494 27.2758 58.6722 27.4829 58.5788C27.9135 58.3851 28.3026 58.11 28.6289 57.7687C28.9488 57.4303 29.2 57.033 29.3685 56.5988C29.4505 56.392 29.515 56.1787 29.5614 55.9612C29.6018 55.7749 29.6311 55.5864 29.6491 55.3967L30.2338 55.6336C30.7346 55.8286 31.2433 56.0031 31.7597 56.1571C32.28 56.3121 32.8062 56.4496 33.3441 56.552C33.8884 56.6591 34.4392 56.7304 34.9928 56.7655C35.1302 56.7655 35.2852 56.7655 35.4138 56.783H35.8435H36.0569H36.2703L36.4866 56.7625L36.703 56.7391C36.9987 56.7008 37.2917 56.6431 37.58 56.5666C37.8722 56.4932 38.1577 56.3954 38.4336 56.2741C39.0037 56.0237 39.5199 55.6651 39.9537 55.2183C40.379 54.7711 40.7136 54.2457 40.9388 53.671C41.0459 53.394 41.1328 53.1095 41.199 52.8199C41.2282 52.6825 41.2545 52.5275 41.275 52.4046C41.6667 52.5041 42.0643 52.5889 42.4647 52.662C43.1169 52.78 43.776 52.8552 44.438 52.8872C44.7712 52.8872 45.1074 52.9018 45.4465 52.8872C45.616 52.8872 45.7856 52.8667 45.9551 52.8521C46.0399 52.8521 46.1247 52.8346 46.2124 52.8229L46.3381 52.8082L46.4667 52.7878C46.8106 52.7388 47.1505 52.6655 47.484 52.5684C47.8257 52.4726 48.159 52.3493 48.4809 52.1999C49.8072 51.6003 50.8534 50.5148 51.4041 49.1669C51.5412 48.8453 51.6507 48.5126 51.7315 48.1725C51.8146 47.8406 51.8751 47.5034 51.9128 47.1634L51.9274 47.0376V46.9119C51.9274 46.8271 51.942 46.7422 51.9449 46.6603C51.9449 46.4907 51.9625 46.324 51.9596 46.1573C51.9596 45.8238 51.9596 45.4934 51.9245 45.1658C51.8689 44.5176 51.7712 43.8738 51.6322 43.2383C51.5523 42.8835 51.4646 42.5325 51.3691 42.1854C51.6115 42.1501 51.8517 42.1002 52.0882 42.0363C52.38 41.9615 52.6654 41.8637 52.9418 41.7438C53.5119 41.4934 54.0281 41.1348 54.4619 40.6879C54.8872 40.2408 55.2218 39.7154 55.447 39.1407C55.5541 38.8636 55.6411 38.5792 55.7072 38.2896C55.7684 38.007 55.8114 37.7208 55.8358 37.4326C55.8358 37.3595 55.8358 37.2893 55.8534 37.2191C55.8709 37.1489 55.8534 37.0787 55.8534 37.0086V36.795V36.3388V36.1311C55.8534 35.9937 55.8358 35.8562 55.8183 35.7187C55.7556 35.1787 55.6579 34.6433 55.526 34.1159C55.2696 33.084 54.9274 32.0753 54.5028 31.1005C54.4356 30.9396 54.3625 30.7817 54.2894 30.6208L54.5233 30.5945C54.741 30.562 54.9567 30.5171 55.1693 30.46C55.3887 30.3993 55.6028 30.3211 55.8095 30.226C56.2399 30.0333 56.629 29.7592 56.9554 29.4187C57.2748 29.0799 57.5259 28.6827 57.695 28.2488C57.7753 28.0405 57.8398 27.8264 57.888 27.6083C57.9318 27.3988 57.963 27.1869 57.9815 26.9736C57.9815 26.763 58.0049 26.5554 57.9991 26.3506V26.1986V26.0465C57.9991 25.9441 57.9844 25.8447 57.9727 25.754C57.9288 25.3598 57.8585 24.9689 57.7623 24.5841C57.5737 23.843 57.3233 23.119 57.0139 22.4197C56.7124 21.7335 56.3728 21.0646 55.9966 20.4163C55.2524 19.1342 54.4141 17.9092 53.4884 16.7515C51.6474 14.4443 49.5529 12.3516 47.2443 10.5129V10.5129ZM51.9654 28.4857C51.4922 28.3361 51.0277 28.1604 50.5739 27.9593C49.945 27.6819 49.3321 27.3694 48.7381 27.0233C47.5338 26.3202 46.3828 25.5293 45.2945 24.6572C44.1956 23.7805 43.1474 22.8421 42.1549 21.8465C41.1609 20.8531 40.2248 19.8034 39.3515 18.7023C38.4788 17.6135 37.6874 16.4619 36.9836 15.2569C36.6383 14.6633 36.326 14.0511 36.0482 13.4231C35.8481 12.9687 35.6725 12.504 35.522 12.0309C37.1842 12.9397 38.7734 13.9763 40.2752 15.1312C43.5028 17.6078 46.3914 20.4978 48.8667 23.7271C50.0176 25.2279 51.0516 26.8149 51.9596 28.474L51.9654 28.4857ZM49.352 40.0094C49.3958 40.1264 49.4397 40.2463 49.4806 40.3633C49.0763 40.3106 48.6751 40.2354 48.2792 40.1381C47.3397 39.9007 46.4216 39.5857 45.5342 39.1963C44.6339 38.8026 43.7556 38.3603 42.9032 37.8714C41.1732 36.872 39.5207 35.7438 37.96 34.4962C36.3905 33.253 34.8951 31.919 33.4815 30.5009C32.0652 29.0887 30.7319 27.5956 29.4883 26.0289C28.2486 24.47 27.1269 22.8207 26.1324 21.0948C25.6431 20.2423 25.201 19.3635 24.8081 18.4625C24.4155 17.5721 24.0977 16.6506 23.8581 15.7074C23.7608 15.3112 23.6856 14.9098 23.633 14.5053L23.9867 14.634C25.1259 15.0619 26.2387 15.557 27.3192 16.1168C29.4913 17.256 31.5626 18.5779 33.5107 20.0682C35.4707 21.5569 37.3265 23.1781 39.065 24.9204C40.8066 26.6606 42.4279 28.5172 43.9176 30.4775C45.4063 32.4267 46.7265 34.4991 47.864 36.6722C48.4227 37.7507 48.9176 38.8611 49.3462 39.9977L49.352 40.0094ZM15.059 24.2916C15.5384 24.3852 16.0178 24.5051 16.4914 24.6455C16.965 24.7859 17.4356 24.938 17.9004 25.1281C18.8387 25.4889 19.7543 25.906 20.6425 26.377C22.4287 27.329 24.133 28.4276 25.7377 29.6615C27.3502 30.898 28.8795 32.2395 30.3156 33.6772C31.7526 35.1141 33.0934 36.6441 34.3293 38.2574C35.5575 39.8635 36.6506 41.5687 37.5975 43.3553C38.0681 44.243 38.485 45.1581 38.8457 46.0959C39.027 46.5619 39.1878 47.0318 39.3281 47.5056C39.4684 47.9823 39.5882 48.4591 39.6818 48.9387C39.7403 49.2312 39.7841 49.5237 39.8163 49.8162L39.4333 49.6641C38.3266 49.2058 37.2471 48.6844 36.2002 48.1023C34.0903 46.9207 32.0759 45.5761 30.1753 44.0807C28.2651 42.5826 26.4483 40.969 24.7351 39.2489C23.0161 37.5344 21.4043 35.7157 19.9087 33.803C18.4169 31.8992 17.0759 29.8818 15.898 27.7692C15.3168 26.7274 14.7956 25.6532 14.337 24.5519C14.2843 24.4232 14.2346 24.2974 14.1849 24.1688C14.4743 24.1892 14.7696 24.236 15.059 24.2916ZM27.8337 52.0917C26.2987 51.1746 24.8269 50.1555 23.4284 49.0411C21.8589 47.798 20.3635 46.4639 18.9499 45.0459C17.5334 43.6318 16.2001 42.1367 14.9567 40.568C13.8436 39.1672 12.825 37.6938 11.9077 36.1574C12.2 36.2452 12.4924 36.3417 12.7847 36.4499C13.4453 36.6978 14.0906 36.9849 14.717 37.3098C15.983 37.9702 17.1899 38.7383 18.3243 39.6058C19.4692 40.4732 20.5525 41.4192 21.5662 42.437C22.5823 43.4504 23.5269 44.5332 24.393 45.6776C25.26 46.8126 26.0278 48.0201 26.6878 49.2868C27.0137 49.9129 27.3008 50.5586 27.5473 51.2201C27.6583 51.5096 27.746 51.7992 27.8337 52.0917ZM28.1699 55.1568C28.146 55.3048 28.1138 55.4512 28.0734 55.5956C28.0334 55.731 27.9826 55.8631 27.9214 55.9904C27.9076 56.0225 27.892 56.0537 27.8747 56.084L27.8279 56.1717C27.7899 56.2273 27.7577 56.2829 27.7168 56.3355C27.6418 56.4411 27.5566 56.5391 27.4625 56.628C27.3719 56.7107 27.2741 56.7851 27.1702 56.8503C27.1146 56.8854 27.0561 56.9146 27.0006 56.9439L26.91 56.9819C26.8795 56.9954 26.8483 57.0071 26.8164 57.017C26.6893 57.0654 26.5583 57.1026 26.4247 57.1281C26.2826 57.1554 26.1392 57.1749 25.995 57.1866C25.8451 57.1955 25.6947 57.1955 25.5448 57.1866H25.4893H25.4308H25.3139C25.2379 57.1866 25.1589 57.1866 25.08 57.1632C24.761 57.1231 24.4447 57.0635 24.1329 56.9848C23.4843 56.8147 22.8508 56.5916 22.2386 56.318C21.6108 56.0382 20.998 55.7258 20.4028 55.382C19.1988 54.6772 18.0479 53.8854 16.9591 53.013C14.7544 51.2558 12.754 49.2564 10.9956 47.0523C10.123 45.9634 9.33158 44.8119 8.62779 43.6069C8.28303 43.012 7.97076 42.3988 7.69234 41.7701C7.41882 41.1576 7.19591 40.5237 7.02583 39.8748C6.94722 39.5629 6.88767 39.2464 6.84751 38.9272C6.84751 38.8482 6.8329 38.7693 6.82413 38.6932V38.5762V38.5177V38.4622C6.82413 38.3072 6.82413 38.1697 6.82413 38.0118C6.83584 37.8675 6.85536 37.724 6.88259 37.5818C6.90855 37.4483 6.94571 37.3172 6.99368 37.1899C7.00358 37.1581 7.0153 37.1268 7.02876 37.0963L7.06676 37.0056C7.09599 36.9501 7.12522 36.8916 7.1603 36.836C7.22559 36.7321 7.29994 36.6343 7.38247 36.5435C7.47131 36.4484 7.56922 36.3622 7.6748 36.2861C7.72742 36.2452 7.78296 36.213 7.8385 36.1779L7.9262 36.1282C7.95648 36.1109 7.98771 36.0952 8.01975 36.0814C8.14654 36.0199 8.27862 35.97 8.41439 35.9322C8.55793 35.8891 8.70451 35.8569 8.85288 35.8357C8.98443 35.8152 9.1189 35.8006 9.25337 35.7918C9.39954 36.0843 9.5457 36.3768 9.70648 36.6868C10.6981 38.5509 11.8441 40.3286 13.1326 42.0012C14.4104 43.6686 15.7961 45.2503 17.2807 46.7364C18.762 48.2191 20.3402 49.6016 22.0047 50.875C23.6773 52.1628 25.454 53.3093 27.3163 54.3028C27.6086 54.4607 27.901 54.6099 28.2108 54.7561C28.2021 54.8936 28.1875 55.0252 28.1699 55.1568ZM39.6964 52.428C39.6396 52.6363 39.5663 52.8398 39.4772 53.0364C39.4538 53.0832 39.4333 53.1329 39.4099 53.1797L39.3339 53.3171L39.255 53.4488L39.2345 53.4839L39.2141 53.5131L39.1702 53.5775C39.052 53.7424 38.9189 53.8961 38.7727 54.0366C38.625 54.1729 38.4645 54.2944 38.2932 54.3993L38.2289 54.4403L38.1968 54.4578L38.1646 54.4754L38.0301 54.5485L37.8898 54.6128L37.7466 54.6713C37.5498 54.7465 37.3475 54.8062 37.1415 54.8497C36.9273 54.8946 36.7106 54.9259 36.4925 54.9433H36.3259H36.1592H35.7354H35.6477H35.4781C35.3612 54.9433 35.2472 54.9258 35.1302 54.9112C34.6624 54.8591 34.1985 54.776 33.7417 54.6625C32.8027 54.4249 31.8847 54.1109 30.9967 53.7237C30.4647 53.4926 29.9356 53.2411 29.4182 52.9691C29.4194 52.9565 29.4194 52.9437 29.4182 52.9311C29.2309 52.1896 28.9805 51.4655 28.6698 50.7667C28.3695 50.0809 28.0319 49.4121 27.6583 48.7633C26.9128 47.4814 26.0735 46.2565 25.1472 45.0985C24.2252 43.9457 23.2375 42.847 22.1889 41.8081C21.1457 40.7634 20.0437 39.7791 18.8885 38.8599C17.7317 37.9325 16.5073 37.0928 15.2256 36.3476C14.5763 35.9727 13.9068 35.6339 13.2203 35.3327C12.5219 35.0218 11.7981 34.7713 11.057 34.5839H11.019C10.7501 34.0662 10.4958 33.5398 10.2677 33.0045C9.87855 32.1167 9.56371 31.1981 9.32645 30.2582C9.21256 29.8012 9.12955 29.337 9.07798 28.8689C9.07798 28.7519 9.05751 28.6378 9.04582 28.5238V28.3512V27.8277C9.04291 27.7721 9.04291 27.7165 9.04582 27.6609C9.04582 27.6054 9.04582 27.5498 9.04582 27.4942C9.06348 27.2761 9.09472 27.0592 9.13936 26.8449C9.18369 26.639 9.2433 26.4366 9.31768 26.2395C9.33815 26.1927 9.35569 26.143 9.37615 26.0962L9.44046 25.9558L9.51354 25.8213L9.53108 25.7891L9.54862 25.7569L9.58955 25.6926C9.69447 25.5212 9.81587 25.3606 9.95204 25.2129C10.0918 25.0667 10.2456 24.9344 10.411 24.8181L10.4753 24.7742L10.5075 24.7508L10.5396 24.7303L10.6712 24.6513L10.8086 24.5753L10.9518 24.508C11.1555 24.4191 11.3656 24.3458 11.5803 24.2887C11.7323 24.2477 11.8872 24.2156 12.0451 24.1863C12.165 24.5578 12.2936 24.9263 12.4281 25.2889C12.8792 26.4889 13.4015 27.6609 13.992 28.7987C15.1723 31.0552 16.5414 33.2077 18.0846 35.2332C19.6159 37.2416 21.2801 39.145 23.0659 40.9307C24.8537 42.7223 26.7612 44.3904 28.775 45.9233C30.7986 47.4686 32.9501 48.8384 35.2062 50.018C36.3434 50.6089 37.5148 51.1314 38.7142 51.5828C39.0767 51.7173 39.445 51.846 39.8163 51.9659C39.7724 52.1209 39.7373 52.2759 39.6964 52.428V52.428ZM50.5125 45.2184C50.5125 45.5109 50.5125 45.8034 50.5125 46.0959C50.5125 46.2392 50.495 46.3883 50.4833 46.5229C50.4833 46.5931 50.4658 46.6633 50.4599 46.7335L50.4453 46.8388L50.4278 46.944C50.3881 47.219 50.3285 47.4908 50.2494 47.7571C50.1728 48.0172 50.075 48.2705 49.9571 48.5146C49.7378 48.9897 49.4326 49.4201 49.0567 49.784C48.6791 50.1387 48.239 50.4204 47.7588 50.6147C47.5134 50.7167 47.2602 50.7988 47.0017 50.8603C46.7371 50.9244 46.4686 50.9703 46.1978 50.9978H46.0955H45.9932H45.7856C45.6453 50.9978 45.5079 51.0124 45.3646 50.9978C45.0723 50.9978 44.8005 50.9978 44.5169 50.9656C43.9419 50.9135 43.3708 50.8255 42.8068 50.7024C42.2952 50.5912 41.7866 50.4509 41.2808 50.2929V50.2198C41.2181 49.6798 41.1205 49.1444 40.9885 48.617C40.7321 47.5851 40.3899 46.5764 39.9654 45.6016C39.5496 44.64 39.0802 43.7026 38.5592 42.7938C37.5212 40.991 36.3486 39.2692 35.0513 37.6432C33.7669 36.0198 32.3886 34.4728 30.9236 33.0104C29.461 31.5445 27.9139 30.1656 26.2902 28.8806C24.6703 27.6027 22.9563 26.449 21.1628 25.4293C20.2542 24.9087 19.3173 24.439 18.3565 24.0225C17.3821 23.5978 16.374 23.2553 15.3426 22.9988C14.8155 22.8665 14.2804 22.7688 13.7406 22.7064H13.6675C13.5097 22.2014 13.3732 21.6924 13.2583 21.1796C13.1352 20.6153 13.0473 20.0439 12.9952 19.4686C12.9747 19.1762 12.9601 18.9012 12.963 18.6204C12.963 18.4771 12.963 18.328 12.963 18.1993C12.963 18.1291 12.963 18.0618 12.963 17.9916V17.8892V17.7869C12.9905 17.516 13.0364 17.2472 13.1004 16.9826C13.1619 16.7239 13.244 16.4706 13.346 16.225C13.5497 15.7387 13.8432 15.2952 14.2113 14.9177C14.579 14.5426 15.0131 14.2391 15.4917 14.0227C15.7385 13.9043 15.9946 13.8064 16.2576 13.7302C16.5241 13.6525 16.7956 13.5929 17.0702 13.5518L17.1755 13.5342H17.2807C17.3509 13.5342 17.421 13.5138 17.4912 13.5079C17.6344 13.5079 17.7835 13.4816 17.918 13.4787C18.2103 13.4611 18.5026 13.4787 18.795 13.4787C19.3832 13.5065 19.969 13.572 20.5489 13.6746C20.9553 13.7478 21.3616 13.8384 21.7679 13.9408V14.0607C21.7679 14.2011 21.7679 14.3532 21.7855 14.4819C21.8205 15.0358 21.8918 15.5868 21.9989 16.1314C22.108 16.6696 22.2396 17.198 22.3935 17.7167C22.5475 18.2353 22.7219 18.7443 22.9168 19.2434C23.3047 20.237 23.7488 21.2076 24.2469 22.1507C25.2352 24.0088 26.3763 25.7815 27.6583 27.4504C28.9362 29.1178 30.3218 30.6996 31.8065 32.1856C33.2902 33.6726 34.8713 35.0591 36.5393 36.3359C38.211 37.6225 39.9867 38.7681 41.8479 39.7608C42.7893 40.2615 43.7596 40.7059 44.7537 41.0916C45.2545 41.2865 45.7632 41.461 46.2796 41.6151C46.8 41.7701 47.3262 41.9076 47.864 42.0099C48.4084 42.117 48.9591 42.1884 49.5128 42.2234C49.6502 42.2234 49.8051 42.2234 49.9337 42.241H50.0536C50.1559 42.6475 50.2465 43.0541 50.3196 43.4606C50.4223 44.0418 50.4877 44.6289 50.5155 45.2184H50.5125ZM53.8685 32.9665C54.0088 33.4403 54.1286 33.92 54.2222 34.3996C54.3153 34.8727 54.3758 35.3515 54.4034 35.8328C54.4034 35.9527 54.4034 36.0726 54.418 36.1896V36.5435V36.719L54.4034 36.8916C54.4034 36.9501 54.4034 37.0086 54.3888 37.0641C54.3742 37.1197 54.3888 37.1782 54.3683 37.2338C54.3359 37.4555 54.291 37.6752 54.2339 37.8918C54.1771 38.1001 54.1038 38.3036 54.0146 38.5002C53.9912 38.547 53.9708 38.5967 53.9474 38.6435L53.8714 38.781L53.7925 38.9126L53.772 38.9477L53.7515 38.9769L53.7077 39.0413C53.5895 39.2062 53.4564 39.3599 53.3101 39.5005C53.1629 39.6359 53.0034 39.7573 52.8336 39.8631L52.7664 39.9041L52.7342 39.9216L52.7021 39.9392L52.5676 40.0123L52.4273 40.0767L52.284 40.1351C52.0873 40.2104 51.885 40.27 51.6789 40.3136C51.4648 40.3584 51.248 40.3897 51.03 40.4072H50.8633H50.8078C50.7026 40.1166 50.5915 39.83 50.4745 39.5473C49.9927 38.38 49.4441 37.2413 48.8317 36.137C47.6119 33.9455 46.22 31.8545 44.6689 29.8838C43.1286 27.9149 41.469 26.0424 39.6993 24.277C37.9355 22.5057 36.0639 20.8452 34.0954 19.3048C32.1236 17.7589 30.0328 16.3712 27.8425 15.1546C26.7416 14.5421 25.6065 13.9933 24.4427 13.5108C24.1602 13.3939 23.8737 13.2827 23.5833 13.1774C23.5833 13.1599 23.5833 13.1394 23.5833 13.1218C23.5833 13.1043 23.5833 13.0107 23.5833 12.9551C23.6007 12.7369 23.632 12.5201 23.6768 12.3058C23.7217 12.0997 23.7823 11.8973 23.8581 11.7004C23.8785 11.6536 23.8961 11.6039 23.9165 11.5571L23.9809 11.4167L24.0539 11.2822L24.0715 11.25L24.089 11.2178L24.1299 11.1535C24.3401 10.8072 24.6198 10.5084 24.9514 10.276L25.0157 10.2322L25.0479 10.2088L25.08 10.1883L25.2116 10.1093L25.349 10.0333L25.4922 9.96601C25.6887 9.87679 25.892 9.80344 26.1002 9.74665C26.3165 9.68904 26.5362 9.64508 26.758 9.61503C26.8141 9.60533 26.8707 9.59849 26.9275 9.59456C26.9847 9.58582 27.0422 9.57996 27.1 9.57701H27.2725H27.4479H27.7987C27.9185 9.57701 28.0354 9.57701 28.1553 9.59163C28.6364 9.61908 29.115 9.67967 29.5877 9.77297C30.0671 9.86656 30.5465 9.98648 31.0201 10.1269C31.4937 10.2673 31.9643 10.4193 32.4321 10.6095C32.7419 10.7294 33.0518 10.8551 33.3587 10.9897C33.3828 11.3096 33.4248 11.6279 33.4844 11.9432C33.5575 12.3351 33.6511 12.7212 33.7592 13.1131C33.8674 13.505 33.9902 13.8589 34.1276 14.2216C34.3985 14.9396 34.7118 15.6408 35.0659 16.3216C35.7682 17.6658 36.5838 18.9476 37.5039 20.153C38.4153 21.3497 39.4056 22.4841 40.4682 23.5487C41.5318 24.6133 42.6667 25.6042 43.865 26.5144C45.0688 27.4351 46.3489 28.2511 47.6916 28.9537C48.3727 29.3085 49.0746 29.6221 49.7934 29.8926C50.153 30.03 50.5242 30.1529 50.9013 30.2611C51.2784 30.3693 51.6614 30.4629 52.0531 30.536C52.3683 30.5953 52.6864 30.6382 53.0061 30.6647C53.1406 30.9572 53.2663 31.2789 53.3861 31.5919C53.5791 32.0345 53.7408 32.4927 53.8714 32.9665H53.8685ZM52.7284 17.3189C53.596 18.4544 54.3638 19.663 55.0232 20.931C55.3478 21.5578 55.6348 22.2034 55.8826 22.8643C56.1285 23.5062 56.3163 24.1689 56.4439 24.8444C56.506 25.1726 56.5441 25.505 56.5579 25.8388C56.5579 25.9207 56.5579 25.9997 56.5579 26.0816V26.3214C56.5514 26.4782 56.5358 26.6344 56.5111 26.7894C56.4886 26.9366 56.4564 27.0822 56.4146 27.2252C56.3751 27.3613 56.3253 27.4943 56.2656 27.6229C56.248 27.6522 56.2363 27.6843 56.2188 27.7136L56.1691 27.8013C56.134 27.8569 56.0989 27.9154 56.0609 27.9651C55.9848 28.0707 55.8987 28.1686 55.8037 28.2576C55.7096 28.3433 55.6067 28.4188 55.4967 28.4828C55.4441 28.515 55.3856 28.5442 55.3272 28.5735L55.2395 28.6144L55.1372 28.6466C55.0085 28.6933 54.8766 28.7304 54.7425 28.7577C54.6016 28.7854 54.459 28.804 54.3157 28.8133C54.1696 28.8133 54.0234 28.8279 53.8655 28.8133H53.7515H53.6346C53.5557 28.8133 53.4797 28.8133 53.4007 28.7899H53.3832C53.2926 28.6232 53.202 28.4565 53.1084 28.2927C52.0704 26.4899 50.8978 24.7682 49.6005 23.1422C48.3225 21.5185 46.9501 19.9715 45.4903 18.5093C44.023 17.043 42.471 15.6641 40.8423 14.3795C39.2178 13.0806 37.4969 11.9073 35.6944 10.8698C35.5307 10.7762 35.3641 10.6855 35.1975 10.5948C35.1975 10.5948 35.1975 10.5714 35.1975 10.5597C35.1975 10.4808 35.1975 10.4047 35.1741 10.3258V10.2117V10.0947C35.1653 9.94469 35.1653 9.79429 35.1741 9.64428C35.1834 9.50089 35.202 9.35826 35.2296 9.21726C35.2583 9.08344 35.2954 8.95156 35.3407 8.82242C35.3407 8.79317 35.3641 8.761 35.3787 8.73175L35.4167 8.64108C35.446 8.58258 35.4752 8.52409 35.5073 8.47144C35.5731 8.36713 35.6484 8.26921 35.7324 8.17896C35.8214 8.08394 35.9193 7.99774 36.0248 7.92158C36.0745 7.88356 36.1329 7.84846 36.1885 7.81337L36.2762 7.76364L36.3668 7.71685C36.4959 7.65836 36.6287 7.60853 36.7644 7.56768C36.9073 7.52625 37.0528 7.49401 37.1999 7.47117C37.3548 7.44646 37.511 7.43083 37.6677 7.42437H37.8898C37.9717 7.42437 38.0506 7.42437 38.1325 7.42437C38.466 7.43963 38.7981 7.47774 39.1264 7.53844C39.8054 7.66445 40.4717 7.85142 41.1171 8.09707C41.7777 8.34505 42.4229 8.63219 43.0494 8.95696C44.3153 9.61689 45.5231 10.383 46.6597 11.2471C48.9462 12.9888 50.9875 15.0312 52.7284 17.3189V17.3189Z" fill="white"/>
</svg>
