<svg width="17" height="16" viewBox="0 0 17 16" fill="none" xmlns="http://www.w3.org/2000/svg">
<g clip-path="url(#clip0_247_14800)">
<path d="M16.989 3.2674C16.3608 3.52923 15.7065 3.7387 15.026 3.81724C15.7327 3.39831 16.2823 2.71755 16.544 1.90587C15.8897 2.29862 15.1569 2.58664 14.3717 2.74374C13.7173 2.06297 12.8275 1.64404 11.8329 1.64404C9.9223 1.64404 8.40427 3.18885 8.40427 5.07404C8.40427 5.33587 8.43044 5.5977 8.48279 5.85953C5.62993 5.72861 3.09114 4.34091 1.41607 2.27244C1.12817 2.76992 0.944953 3.37213 0.944953 4.00053C0.944953 5.20495 1.54694 6.25228 2.46299 6.85449C1.88718 6.82831 1.36372 6.67121 0.91878 6.43556C0.91878 6.46174 0.91878 6.46174 0.91878 6.48793C0.91878 8.16365 2.09657 9.55135 3.66695 9.86555C3.37905 9.9441 3.06497 9.99647 2.75089 9.99647C2.54151 9.99647 2.30595 9.97028 2.09657 9.9441C2.54151 11.3056 3.79781 12.3006 5.31585 12.3267C4.13806 13.2431 2.6462 13.793 1.04965 13.793C0.761742 13.793 0.500012 13.7668 0.238281 13.7406C1.75632 14.6832 3.56226 15.2592 5.49906 15.2592C11.8329 15.2592 15.2877 10.0226 15.2877 5.46678C15.2877 5.30968 15.2877 5.17877 15.2877 5.02167C15.942 4.55037 16.5179 3.94816 16.989 3.2674Z" fill="white"/>
</g>
<defs>
<clipPath id="clip0_247_14800">
<rect width="17" height="15" fill="white" transform="translate(0 0.933105)"/>
</clipPath>
</defs>
</svg>
