<?xml version="1.0" encoding="UTF-8" standalone="no" ?>
<!DOCTYPE svg PUBLIC "-//W3C//DTD SVG 1.1//EN" "http://www.w3.org/Graphics/SVG/1.1/DTD/svg11.dtd">
<svg xmlns="http://www.w3.org/2000/svg" xmlns:xlink="http://www.w3.org/1999/xlink" version="1.1" width="449" height="385" viewBox="95.5 127.5 449 385" xml:space="preserve">
<desc>Created with Fabric.js 4.6.0</desc>
<defs>
</defs>
<g transform="matrix(1 0 0 1 320 320)" id="EsBNSYTaS6hwidZ2QLjHs"  >
<path style="stroke: none; stroke-width: 1; stroke-dasharray: none; stroke-linecap: butt; stroke-dashoffset: 0; stroke-linejoin: miter; stroke-miterlimit: 4; fill: rgb(255,255,255); fill-rule: nonzero; opacity: 1;" vector-effect="non-scaling-stroke"  transform=" translate(-224, -256)" d="M 0 96 C 0 78.3 14.3 64 32 64 L 416 64 C 433.7 64 448 78.3 448 96 C 448 113.7 433.7 128 416 128 L 32 128 C 14.3 128 0 113.7 0 96 z M 0 256 C 0 238.3 14.3 224 32 224 L 416 224 C 433.7 224 448 238.3 448 256 C 448 273.7 433.7 288 416 288 L 32 288 C 14.3 288 0 273.7 0 256 z M 448 416 C 448 433.7 433.7 448 416 448 L 32 448 C 14.3 448 0 433.7 0 416 C 0 398.3 14.3 384 32 384 L 416 384 C 433.7 384 448 398.3 448 416 z" stroke-linecap="round" />
</g>
</svg>