<svg width="11" height="12" viewBox="0 0 11 12" fill="none" xmlns="http://www.w3.org/2000/svg">
<path d="M5.0625 0.84375C5.20312 0.71875 5.33594 0.71875 5.46094 0.84375L10.4062 5.8125C10.5469 5.9375 10.5469 6.0625 10.4062 6.1875L5.46094 11.1562C5.33594 11.2812 5.20312 11.2812 5.0625 11.1562L4.89844 10.9688C4.77344 10.8438 4.77344 10.7109 4.89844 10.5703L9.09375 6.39844H0.28125C0.09375 6.39844 0 6.30469 0 6.11719V5.88281C0 5.69531 0.09375 5.60156 0.28125 5.60156H9.09375L4.89844 1.42969C4.77344 1.28906 4.77344 1.15625 4.89844 1.03125L5.0625 0.84375Z" fill="white"/>
</svg>
